<?xml version="1.0" standalone="no"?><svg xmlns="http://www.w3.org/2000/svg" viewBox="0 0 1440 320"><path fill="#00BFA6" fill-opacity="1" d="M0,160L30,144C60,128,120,96,180,106.7C240,117,300,171,360,176C420,181,480,139,540,144C600,149,660,203,720,218.7C780,235,840,213,900,176C960,139,1020,85,1080,85.3C1140,85,1200,139,1260,165.3C1320,192,1380,192,1410,192L1440,192L1440,0L1410,0C1380,0,1320,0,1260,0C1200,0,1140,0,1080,0C1020,0,960,0,900,0C840,0,780,0,720,0C660,0,600,0,540,0C480,0,420,0,360,0C300,0,240,0,180,0C120,0,60,0,30,0L0,0Z"></path></svg>