<?xml version="1.0" standalone="no"?><svg xmlns="http://www.w3.org/2000/svg" viewBox="0 0 1440 320"><path fill="#00BFA6" fill-opacity="1" d="M0,160L30,144C60,128,120,96,180,106.7C240,117,300,171,360,176C420,181,480,139,540,144C600,149,660,203,720,218.7C780,235,840,213,900,176C960,139,1020,85,1080,85.3C1140,85,1200,139,1260,165.3C1320,192,1380,192,1410,192L1440,192L1440,320L1410,320C1380,320,1320,320,1260,320C1200,320,1140,320,1080,320C1020,320,960,320,900,320C840,320,780,320,720,320C660,320,600,320,540,320C480,320,420,320,360,320C300,320,240,320,180,320C120,320,60,320,30,320L0,320Z"></path></svg>