<?xml version="1.0" standalone="no"?><svg xmlns="http://www.w3.org/2000/svg" viewBox="0 0 1440 320"><path fill="#0099ff" fill-opacity="1" d="M0,128L34.3,149.3C68.6,171,137,213,206,208C274.3,203,343,149,411,144C480,139,549,181,617,218.7C685.7,256,754,288,823,293.3C891.4,299,960,277,1029,240C1097.1,203,1166,149,1234,133.3C1302.9,117,1371,139,1406,149.3L1440,160L1440,320L1405.7,320C1371.4,320,1303,320,1234,320C1165.7,320,1097,320,1029,320C960,320,891,320,823,320C754.3,320,686,320,617,320C548.6,320,480,320,411,320C342.9,320,274,320,206,320C137.1,320,69,320,34,320L0,320Z"></path></svg>